<svg width="4748" height="2138" viewBox="0 0 4748 2138" fill="none" xmlns="http://www.w3.org/2000/svg">
<path d="M502.417 295.582C503.379 287.601 503.949 279.369 503.949 270.96C503.949 266.363 503.985 261.018 503.415 254.961C574.43 253.963 636.715 202.794 636.715 143.963C636.715 114.032 617.189 91.4402 606.178 77.9353C608.637 77.4008 611.131 76.8306 613.661 76.2249C624.066 85.2757 653.569 117.417 653.569 158.003C653.569 228.592 583.017 294.121 502.417 295.582ZM430.867 49.7495C429.549 41.8745 426.555 34.7479 421.995 28.619C422.244 21.4211 425.201 14.5439 436.782 20.2096C430.511 26.6236 435.357 37.9905 435.357 37.9905C435.357 37.9905 448.184 32.0398 445.512 23.5591C464.54 28.1202 450.857 53.6691 430.867 49.7495ZM414.369 85.9884C411.839 75.441 406.423 64.6085 399.546 56.4485C393.275 49.0368 382.906 40.2354 368.938 40.2354C362.56 40.2354 351.87 43.2286 345.064 46.1149C342.534 41.4826 337.581 30.3294 337.581 25.3051C337.581 20.1383 346.311 14.9003 363.023 14.9003C399.796 14.9003 421.745 31.5053 421.745 59.3704C421.745 69.1695 417.861 78.0778 414.369 85.9884ZM508.795 559.909C513.071 559.909 515.138 560.586 517.632 561.512C528.215 590.304 569.014 644.645 570.724 646.961L571.081 647.46L571.686 647.317C581.699 645.714 607.247 641.865 628.627 641.865H629.126C631.442 641.865 634.079 641.865 635.753 643.504C637.143 644.894 637.82 647.317 637.82 650.773C637.82 656.083 635.575 665.169 632.867 669.053C625.384 660.893 613.234 657.223 593.778 657.223C587.935 657.223 581.022 658.969 577.281 659.967L575.748 660.288L574.002 660.751L585.227 671.975C602.544 689.293 617.51 704.223 617.51 714.165C617.51 720.151 611.666 727.955 606.321 731.411C605.145 713.203 586.759 688.83 568.836 675.182L567.303 674.042L567.018 680.456C566.769 684.803 566.377 691.324 566.377 698.308C566.377 732.979 562.849 738.253 550.841 738.253C548.988 738.253 546.173 737.718 544.427 737.077C551.198 728.703 553.87 717.657 553.87 698.272L553.763 689.328L553.656 682.131C553.656 674.184 554.476 668.305 555.117 663.566L555.474 660.893L553.585 660.644C547.955 659.86 537.515 658.435 529.533 658.435C512.394 658.435 500.778 660.002 492.368 667.913C486.81 663.423 481.109 655.691 481.109 650.809C481.109 643.576 485.598 643.005 491.513 643.005C494.506 643.005 497.286 643.433 501.134 643.896C508.51 645.001 519.592 646.64 542.432 646.64H543.857L543.394 645.25C537.622 628.681 521.73 604.593 496.252 573.628C498.533 565.325 500.778 559.909 508.795 559.909ZM288.801 645.25L288.337 646.64H289.763C312.567 646.64 323.685 645.001 331.061 643.896C334.909 643.433 337.688 643.005 340.681 643.005C346.561 643.005 351.086 643.576 351.086 650.809C351.086 655.691 345.385 663.423 339.862 667.913C331.417 660.002 319.801 658.435 302.697 658.435C294.68 658.435 284.204 659.86 278.61 660.644L277.719 660.751L276.721 660.893L277.042 663.566C277.719 668.305 278.538 674.184 278.538 682.131L278.432 689.328L278.325 698.272C278.325 717.657 280.997 728.703 287.803 737.077C286.021 737.718 283.206 738.253 281.353 738.253C269.31 738.253 265.818 732.979 265.818 698.308C265.818 691.324 265.461 684.803 265.212 680.456L264.856 674.006L263.359 675.182C245.472 688.83 227.014 713.203 225.909 731.411C220.529 727.955 214.685 720.151 214.685 714.165C214.685 704.223 229.651 689.293 246.968 671.975L256.91 662.034L258.192 660.751L254.914 659.967C251.173 658.969 244.26 657.223 238.381 657.223C218.961 657.223 206.846 660.893 199.328 669.053C196.62 665.169 194.375 656.083 194.375 650.773C194.375 647.317 195.052 644.894 196.441 643.504C198.116 641.865 200.753 641.865 203.069 641.865H203.568C224.947 641.865 250.531 645.714 260.508 647.317L261.114 647.46L261.471 646.961C263.217 644.645 303.98 590.304 314.598 561.512C317.021 560.586 319.124 559.909 323.4 559.909C331.417 559.909 333.662 565.325 335.978 573.628C310.465 604.593 294.573 628.681 288.801 645.25ZM178.625 158.003C178.625 117.417 208.164 85.2757 218.569 76.2249C221.063 76.8306 223.558 77.4008 226.052 77.9353C215.006 91.4402 195.479 114.032 195.479 143.963C195.479 203.4 258.976 254.996 330.882 254.996C330.419 260.092 330.17 265.437 330.17 270.96C330.17 279.726 330.669 287.886 331.524 295.582C250.211 295.084 178.625 229.091 178.625 158.003ZM724.015 283.182C760.502 340.872 789.044 339.91 832.159 339.91C796.491 312.579 772.902 277.552 761.643 259.664L695.01 153.05C688.525 120.125 671.493 89.3379 645.98 66.4258C654.567 63.1832 661.694 59.7624 665.97 56.5198C622.462 56.5198 579.347 34.4272 555.616 34.4272C540.365 34.4272 530.566 43.5493 530.566 55.5933C531.529 69.027 545.354 82.6745 570.902 82.6745C576.675 82.6745 584.086 81.9262 592.211 80.5721C606.036 99.8496 617.189 117.274 617.189 142.146C617.189 188.826 561.388 225.207 505.054 225.207C501.847 225.207 498.818 225.064 495.647 224.851C490.551 213.27 473.555 193.85 473.555 171.757C473.555 134.663 497.749 104.375 497.749 67.6373C497.749 44.7965 486.632 30.6501 482.356 24.7706C489.268 18.3567 496.823 10.4818 498.604 5.06552C494.578 6.81154 489.803 7.02534 482.855 7.02534C455.845 7.02534 433.824 0.00561523 412.374 0.00561523C400.116 0.00561523 396.838 3.78273 396.838 7.38167C396.838 8.7001 397.016 10.0542 397.373 10.6956C392.812 8.9139 388.536 7.738 383.44 6.81154C377.098 5.60002 370.292 4.99425 363.023 4.99425C336.94 4.99425 327.676 15.9336 327.676 25.3051C327.676 33.2157 333.911 47.6827 341.002 58.729C351.157 53.5978 363.379 50.1414 368.938 50.1414C382.799 50.1414 395.092 63.3257 401.613 78.933C392.313 80.0732 390.531 80.4652 381.124 80.4652C355.718 80.4652 338.437 71.3788 334.873 71.3788C334.553 71.3788 333.876 71.5569 333.876 72.1271C333.876 75.6904 341.073 85.0975 355.255 90.2643C373.962 97.1059 401.969 99.9565 406.637 100.74C406.637 101.56 401.898 110.397 396.589 112.107C395.484 112.464 394.593 112.499 393.275 112.214C373.748 108.366 368.296 106.727 343.532 97.3197C342.784 97.0346 342.32 97.4979 342.32 98.2818C342.32 108.081 367.691 129.71 390.424 138.013C371.432 162.243 347.737 187.044 336.548 224.851C333.377 225.064 330.312 225.207 327.141 225.207C270.806 225.207 215.006 188.826 215.006 142.146C215.006 117.274 226.159 99.8496 239.984 80.5721C248.108 81.9262 255.484 82.6745 261.292 82.6745C286.841 82.6745 300.666 69.027 301.664 55.5933C301.664 43.5493 291.865 34.4272 276.579 34.4272C252.848 34.4272 209.768 56.5198 166.19 56.5198C170.501 59.7624 177.628 63.1832 186.179 66.4258C160.702 89.3379 143.67 120.125 137.185 153.05L70.5522 259.664C59.3279 277.552 35.668 312.579 0 339.91C43.1152 339.91 71.6924 340.872 108.18 283.182L142.351 228.521C144.881 235.612 147.981 242.525 151.652 249.295L83.7005 358.012C72.405 376.042 48.9589 410.749 13.1484 438.257C56.2636 438.257 84.8407 439.255 121.328 381.601L179.801 287.957C184.184 292.625 188.78 297.186 193.626 301.533L111.102 433.661C99.7707 451.727 76.4671 486.362 40.5853 513.835C83.7005 513.835 112.278 514.869 148.73 457.179L229.188 328.365C234.497 331.714 239.913 334.957 245.543 338.021L147.304 495.199C135.973 513.265 112.67 547.794 76.7878 575.374C119.903 575.374 148.48 576.371 184.968 518.717L286.093 356.836C292.079 359.116 298.136 361.326 304.301 363.285L190.028 546.19C178.875 564.007 155.037 599.177 119.547 626.365C162.626 626.365 191.239 627.362 227.691 569.708L349.483 374.795C350.73 375.009 351.941 375.187 353.153 375.436C356.467 385.984 358.783 395.818 358.783 405.618C358.783 466.871 318.589 520.962 270.343 562.724C273.443 564.078 278.824 564.541 283.776 564.541C293.754 564.541 300.167 564.007 304.693 563.223C293.504 588.629 269.488 621.447 257.373 638.409C241.588 635.558 218.605 633.349 203.568 633.349C187.818 633.349 186.037 642.542 186.037 650.773C186.037 665.062 192.736 676.429 200.504 682.772C203.425 675.467 209.305 665.704 238.381 665.704C238.951 665.704 239.949 665.775 241.303 665.882C232.822 675.325 206.205 696.847 206.205 714.165C206.205 725.639 218.783 742.849 235.352 742.849C234.39 739.144 234.497 735.758 234.497 733.193C234.497 719.153 246.933 702.727 257.444 691.253C257.123 694.673 257.302 694.317 257.302 698.308C257.302 731.482 260.295 746.733 281.353 746.733C291.687 746.733 298.813 741.068 301.272 739.357C287.589 726.779 286.876 716.873 286.876 698.272C286.912 693.426 286.948 688.687 287.019 682.166C287.055 677.89 286.983 672.26 286.306 668.198C293.825 667.165 296.889 667.165 302.697 667.165C302.697 667.165 332.593 664.777 339.826 680.349C347.95 672.902 359.745 662.39 359.745 650.809C359.745 643.148 356.11 634.489 340.681 634.489C334.838 634.489 316.487 638.052 301.129 638.052C305.263 628.895 323.613 602.027 339.541 582.536C341.964 590.09 345.706 598.25 354.044 604.949C355.219 592.406 362.56 552.747 382.158 529.55C384.438 545.228 387.502 561.299 387.502 595.186C387.502 677.641 367.691 738.538 325.609 750.154C331.096 759.668 342.677 768.256 354.685 768.256C370.078 768.256 378.452 750.831 387.004 734.404C391.458 746.52 403.751 776.238 416.08 776.238C428.408 776.238 440.737 746.52 445.191 734.404C453.707 750.831 462.117 768.256 477.51 768.256C489.518 768.256 501.098 759.668 506.586 750.154C464.504 738.538 444.657 677.641 444.657 595.186C444.657 561.299 447.721 545.228 450.002 529.55C469.635 552.747 477.011 592.406 478.116 604.949C486.489 598.25 490.266 590.09 492.654 582.536C508.546 602.027 526.932 628.895 531.065 638.052C515.708 638.052 497.321 634.489 491.513 634.489C476.12 634.489 472.486 643.148 472.486 650.809C472.486 662.39 484.28 672.902 492.404 680.349C499.566 664.777 529.533 667.165 529.533 667.165C535.306 667.165 538.37 667.165 545.924 668.198C545.211 672.26 545.176 677.89 545.211 682.166C545.283 688.687 545.283 693.426 545.318 698.272C545.318 716.873 544.606 726.779 530.923 739.357C533.381 741.068 540.508 746.733 550.841 746.733C571.9 746.733 574.929 731.482 574.929 698.308C574.929 694.317 575.036 694.673 574.751 691.253C585.262 702.727 597.698 719.153 597.698 733.193C597.698 735.758 597.84 739.144 596.807 742.849C613.412 742.849 626.026 725.639 626.026 714.165C626.026 696.847 599.408 675.325 590.857 665.882C592.246 665.775 593.244 665.704 593.778 665.704C622.89 665.704 628.769 675.467 631.691 682.772C639.459 676.429 646.158 665.062 646.158 650.773C646.158 642.542 644.376 633.349 628.627 633.349C613.59 633.349 590.643 635.558 574.822 638.409C562.671 621.447 538.726 588.629 527.502 563.223C532.027 564.007 538.477 564.541 548.418 564.541C553.407 564.541 558.752 564.078 561.852 562.724C513.605 520.962 473.412 466.871 473.412 405.618C473.412 395.818 475.728 385.984 479.042 375.436C480.218 375.187 481.501 375.009 482.712 374.795L604.504 569.708C640.956 627.362 669.568 626.365 712.648 626.365C677.158 599.177 653.32 564.007 642.167 546.19L527.858 363.285C534.058 361.326 540.152 359.116 546.138 356.836L647.227 518.717C683.714 576.371 712.292 575.374 755.407 575.374C719.525 547.794 696.221 513.265 684.89 495.199L586.688 338.021C592.246 334.957 597.698 331.714 602.971 328.365L683.465 457.179C719.953 514.869 748.494 513.835 791.609 513.835C755.728 486.362 732.46 451.727 721.093 433.661L638.568 301.533C643.414 297.186 648.047 292.625 652.358 287.957L710.902 381.601C747.354 439.255 775.931 438.257 819.046 438.257C783.2 410.749 759.825 376.042 748.494 358.012L680.579 249.295C684.213 242.525 687.313 235.612 689.879 228.521L724.015 283.182Z" fill="black"></path>
<path d="M1195.69 2138.01L1070.98 2138.01L1070.98 1425.34L1195.69 1425.34L1195.69 2138.01Z" fill="black" fill-opacity="0.2"></path>
<path d="M1195.69 1425.33L1070.98 1425.33L1070.98 712.671L1195.69 712.671L1195.69 1425.33Z" fill="black" fill-opacity="0.6"></path>
<path d="M1195.69 712.663L1070.98 712.663L1070.98 -1.0903e-05L1195.69 0L1195.69 712.663Z" fill="black"></path>
<path d="M1611.5 86.3803C1611.5 40.6274 1583.71 11.1232 1513.59 11.1232H1456.72V306.166H1517.01C1587.56 306.166 1619.2 272.385 1619.2 226.205C1619.2 186.866 1593.97 161.21 1563.61 155.224V154.368C1589.27 147.527 1611.5 127.43 1611.5 86.3803ZM1573.88 87.6632C1573.88 121.443 1552.92 142.396 1513.16 142.396H1493.92V40.6274H1513.59C1555.06 40.6274 1573.88 60.7245 1573.88 87.6632ZM1579.43 223.639C1579.43 257.419 1560.62 275.379 1517.01 275.379H1493.92V171.9H1519.14C1557.63 171.9 1579.43 191.997 1579.43 223.639ZM1776.12 283.075H1776.98V306.166H1808.62V100.919H1773.99V257.847C1767.15 266.399 1753.46 280.51 1732.51 280.51C1709.42 280.51 1698.3 266.827 1698.3 233.046V100.919H1663.67V235.612C1663.67 291.2 1686.33 311.297 1722.68 311.297C1753.89 311.297 1772.28 290.344 1776.12 283.075ZM1938.18 125.292C1962.13 125.292 1973.67 139.402 1973.67 174.038V306.166H2008.31V171.472C2008.31 115.885 1985.22 95.7875 1948.44 95.7875C1916.37 95.7875 1897.99 116.74 1894.14 124.009H1893.28V100.919H1861.64V306.166H1896.28V147.954C1903.12 139.402 1917.23 125.292 1938.18 125.292ZM2131.88 280.51C2107.93 280.51 2086.55 261.695 2086.55 205.253C2086.55 147.099 2111.78 126.575 2143.85 126.575C2156.25 126.575 2164.37 129.995 2170.36 133.844V260.413C2165.66 267.254 2153.68 280.51 2131.88 280.51ZM2172.5 284.358H2173.35V306.166H2205V0.00561523L2170.36 3.85399V102.201C2163.95 99.6359 2154.54 97.0703 2141.28 97.0703C2097.67 97.0703 2050.64 123.581 2050.64 206.535C2050.64 281.365 2083.56 311.297 2122.47 311.297C2154.97 311.297 2168.65 290.772 2172.5 284.358ZM2324.72 124.009C2346.53 124.009 2358.07 140.685 2358.07 168.907C2358.07 175.321 2357.64 180.879 2357.22 183.873H2282.82C2284.53 145.389 2300.35 124.009 2324.72 124.009ZM2393.99 286.924L2381.16 262.551C2376.46 267.254 2362.35 280.51 2337.98 280.51C2303.34 280.51 2284.53 257.847 2282.39 209.956H2387.15C2388.43 200.121 2389.71 187.721 2389.71 170.19C2389.71 121.016 2365.77 95.7875 2326.86 95.7875C2284.1 95.7875 2248.61 128.285 2248.61 200.977C2248.61 278.372 2281.11 311.297 2332.84 311.297C2371.75 311.297 2388.43 292.91 2393.99 286.924ZM2539.37 117.595C2532.53 110.753 2518.84 95.7875 2487.2 95.7875C2453.85 95.7875 2427.77 118.45 2427.77 148.81C2427.77 177.031 2443.16 193.707 2468.82 209.956L2481.64 218.08C2501.31 230.481 2511.58 237.322 2511.58 256.992C2511.58 270.247 2500.46 280.51 2479.93 280.51C2457.7 280.51 2444.87 267.254 2438.46 260.413L2421.78 287.779C2429.91 296.331 2446.58 311.297 2479.51 311.297C2521.41 311.297 2544.93 286.069 2544.93 253.571C2544.93 223.212 2527.82 206.535 2500.03 189.859L2487.2 182.162C2468.82 171.045 2460.27 162.493 2460.27 147.099C2460.27 135.126 2470.1 125.292 2488.49 125.292C2507.73 125.292 2519.7 137.264 2524.4 142.396L2539.37 117.595ZM2662.51 126.575C2683.89 126.575 2693.3 140.685 2693.3 174.038V306.166H2727.93V168.479C2727.93 160.782 2727.51 153.513 2726.22 147.099C2733.92 138.12 2746.75 126.575 2765.56 126.575C2788.65 126.575 2801.05 140.685 2801.05 174.038V306.166H2835.69V168.479C2835.69 119.733 2814.31 95.7875 2773.26 95.7875C2746.75 95.7875 2727.93 111.609 2718.96 123.154C2709.55 104.767 2692.45 95.7875 2669.36 95.7875C2641.13 95.7875 2623.6 114.602 2618.04 124.009H2617.19V100.919H2585.55V306.166H2620.18V147.954C2626.17 140.685 2639.42 126.575 2662.51 126.575ZM2904.96 51.3173C2918.64 51.3173 2928.05 41.055 2928.05 26.5167C2928.05 12.4059 2918.64 2.14362 2904.96 2.14362C2890.85 2.14362 2881.44 12.4059 2881.44 26.5167C2881.44 41.055 2890.85 51.3173 2904.96 51.3173ZM2922.06 100.919H2887.43V306.166H2922.06V100.919ZM3051.62 125.292C3075.56 125.292 3087.11 139.402 3087.11 174.038V306.166H3121.74V171.472C3121.74 115.885 3098.65 95.7875 3061.88 95.7875C3029.81 95.7875 3011.43 116.74 3007.58 124.009H3006.72V100.919H2975.08V306.166H3009.72V147.954C3016.56 139.402 3030.67 125.292 3051.62 125.292ZM3191.01 51.3173C3204.7 51.3173 3214.1 41.055 3214.1 26.5167C3214.1 12.4059 3204.7 2.14362 3191.01 2.14362C3176.9 2.14362 3167.5 12.4059 3167.5 26.5167C3167.5 41.055 3176.9 51.3173 3191.01 51.3173ZM3208.12 100.919H3173.48V306.166H3208.12V100.919ZM3364.61 117.595C3357.77 110.753 3344.09 95.7875 3312.45 95.7875C3279.1 95.7875 3253.01 118.45 3253.01 148.81C3253.01 177.031 3268.41 193.707 3294.06 209.956L3306.89 218.08C3326.56 230.481 3336.82 237.322 3336.82 256.992C3336.82 270.247 3325.7 280.51 3305.18 280.51C3282.94 280.51 3270.12 267.254 3263.7 260.413L3247.03 287.779C3255.15 296.331 3271.83 311.297 3304.75 311.297C3346.66 311.297 3370.17 286.069 3370.17 253.571C3370.17 223.212 3353.07 206.535 3325.28 189.859L3312.45 182.162C3294.06 171.045 3285.51 162.493 3285.51 147.099C3285.51 135.126 3295.34 125.292 3313.73 125.292C3332.97 125.292 3344.94 137.264 3349.65 142.396L3364.61 117.595ZM3504.01 302.317L3499.3 274.523C3495.88 276.661 3488.19 280.51 3477.92 280.51C3460.39 280.51 3453.55 271.958 3453.55 242.881V129.14H3498.45L3502.72 100.919H3453.55V43.6206H3422.77L3418.92 100.919L3394.12 106.05V129.14H3418.92V247.585C3418.92 292.91 3436.88 311.297 3471.94 311.297C3490.32 311.297 3501.01 304.455 3504.01 302.317ZM3601.5 124.009C3623.3 124.009 3634.85 140.685 3634.85 168.907C3634.85 175.321 3634.42 180.879 3633.99 183.873H3559.59C3561.3 145.389 3577.12 124.009 3601.5 124.009ZM3670.77 286.924L3657.94 262.551C3653.23 267.254 3639.12 280.51 3614.75 280.51C3580.12 280.51 3561.3 257.847 3559.16 209.956H3663.92C3665.21 200.121 3666.49 187.721 3666.49 170.19C3666.49 121.016 3642.54 95.7875 3603.63 95.7875C3560.88 95.7875 3525.39 128.285 3525.39 200.977C3525.39 278.372 3557.88 311.297 3609.62 311.297C3648.53 311.297 3665.21 292.91 3670.77 286.924ZM3807.17 100.491C3803.75 99.2083 3798.19 97.0703 3788.35 97.0703C3762.27 97.0703 3751.15 112.464 3745.17 128.713H3744.31V100.919H3712.67V306.166H3747.3V155.651C3752.43 141.968 3763.98 127.857 3785.79 127.857C3795.19 127.857 3801.18 130.423 3802.89 131.278L3807.17 100.491ZM3854.63 51.3173C3868.31 51.3173 3877.72 41.055 3877.72 26.5167C3877.72 12.4059 3868.31 2.14362 3854.63 2.14362C3840.52 2.14362 3831.11 12.4059 3831.11 26.5167C3831.11 41.055 3840.52 51.3173 3854.63 51.3173ZM3871.73 100.919H3837.1V306.166H3871.73V100.919ZM4035.93 283.075H4036.78V306.166H4068.42V100.919H4033.79V257.847C4026.95 266.399 4013.26 280.51 3992.31 280.51C3969.22 280.51 3958.1 266.827 3958.1 233.046V100.919H3923.47V235.612C3923.47 291.2 3946.13 311.297 3982.48 311.297C4013.69 311.297 4032.08 290.344 4035.93 283.075ZM4198.41 126.575C4219.79 126.575 4229.19 140.685 4229.19 174.038V306.166H4263.83V168.479C4263.83 160.782 4263.4 153.513 4262.12 147.099C4269.82 138.12 4282.64 126.575 4301.46 126.575C4324.55 126.575 4336.95 140.685 4336.95 174.038V306.166H4371.58V168.479C4371.58 119.733 4350.2 95.7875 4309.15 95.7875C4282.64 95.7875 4263.83 111.609 4254.85 123.154C4245.44 104.767 4228.34 95.7875 4205.25 95.7875C4177.03 95.7875 4159.5 114.602 4153.94 124.009H4153.08V100.919H4121.44V306.166H4156.08V147.954C4162.06 140.685 4175.32 126.575 4198.41 126.575Z" fill="black"></path>
<path d="M1535.82 556.746L1540.09 528.524H1493.92V491.751C1493.92 464.812 1502.89 455.833 1519.14 455.833C1528.12 455.833 1534.54 459.253 1537.96 461.391L1545.23 432.742C1541.81 430.604 1530.69 425.046 1516.15 425.046C1485.79 425.046 1459.28 443.005 1459.28 487.902V528.952L1434.48 533.655V556.746H1459.28V733.771H1493.92V556.746H1535.82ZM1694.45 469.516C1694.45 456.26 1685.47 447.708 1673.93 447.708C1662.39 447.708 1653.41 456.26 1653.41 469.516C1653.41 482.771 1662.39 491.323 1673.93 491.323C1685.47 491.323 1694.45 482.771 1694.45 469.516ZM1628.61 469.516C1628.61 456.26 1619.63 447.708 1608.08 447.708C1596.54 447.708 1587.56 456.26 1587.56 469.516C1587.56 482.771 1596.54 491.323 1608.08 491.323C1619.63 491.323 1628.61 482.771 1628.61 469.516ZM1681.2 710.681H1682.05V733.771H1713.7V528.524H1679.06V685.453C1672.22 694.004 1658.54 708.115 1637.58 708.115C1614.5 708.115 1603.38 694.432 1603.38 660.652V528.524H1568.74V663.217C1568.74 718.805 1591.41 738.902 1627.75 738.902C1658.96 738.902 1677.35 717.95 1681.2 710.681ZM1861.21 528.097C1857.79 526.814 1852.23 524.676 1842.4 524.676C1816.32 524.676 1805.2 540.069 1799.21 556.318H1798.36V528.524H1766.72V733.771H1801.35V583.257C1806.48 569.574 1818.03 555.463 1839.83 555.463C1849.24 555.463 1855.23 558.028 1856.94 558.884L1861.21 528.097ZM2030.54 733.771C2120.76 733.771 2176.77 687.163 2176.77 578.981C2176.77 477.64 2131.02 438.729 2034.81 438.729H1979.23V733.771H2030.54ZM2034.81 468.233C2100.23 468.233 2137.01 495.599 2137.01 578.981C2137.01 669.204 2098.52 702.984 2030.54 702.984H2016.43V468.233H2034.81ZM2240.91 478.923C2254.59 478.923 2264 468.661 2264 454.122C2264 440.011 2254.59 429.749 2240.91 429.749C2226.8 429.749 2217.39 440.011 2217.39 454.122C2217.39 468.661 2226.8 478.923 2240.91 478.923ZM2258.01 528.524H2223.38V733.771H2258.01V528.524ZM2408.53 592.236C2408.53 621.74 2392.28 633.286 2372.61 633.286C2353.79 633.286 2337.12 621.74 2337.12 592.236C2337.12 562.732 2353.79 551.187 2373.46 551.187C2392.28 551.187 2408.53 562.732 2408.53 592.236ZM2458.98 749.592C2458.98 710.681 2429.91 695.287 2390.99 695.287H2364.91C2349.95 695.287 2343.96 689.301 2343.96 680.749C2343.96 670.059 2353.79 664.5 2360.64 661.507C2364.06 661.935 2367.48 661.935 2371.33 661.935C2411.52 661.935 2442.31 635.851 2442.31 592.236C2442.31 578.553 2438.88 565.725 2432.47 555.463H2458.13L2462.83 528.524H2400.4C2391.85 525.103 2382.87 523.393 2373.04 523.393C2334.55 523.393 2303.34 546.056 2303.34 592.236C2303.34 624.734 2317.45 645.258 2338.4 655.093V655.948C2333.27 658.514 2313.6 667.066 2313.6 689.301C2313.6 702.129 2318.3 711.536 2326.86 717.95V718.805C2317.45 723.936 2292.65 738.475 2292.65 768.834C2292.65 804.325 2316.17 824.422 2359.78 824.422C2420.5 824.422 2458.98 793.635 2458.98 749.592ZM2362.35 794.918C2337.97 794.918 2326 783.8 2326 761.993C2326 741.468 2337.12 731.633 2346.95 726.074C2351.66 726.93 2357.22 727.357 2362.77 727.357H2388.86C2409.81 727.357 2423.49 735.054 2423.49 754.723C2423.49 775.676 2404.25 794.918 2362.35 794.918ZM2514.99 478.923C2528.68 478.923 2538.08 468.661 2538.08 454.122C2538.08 440.011 2528.68 429.749 2514.99 429.749C2500.88 429.749 2491.48 440.011 2491.48 454.122C2491.48 468.661 2500.88 478.923 2514.99 478.923ZM2532.1 528.524H2497.46V733.771H2532.1V528.524ZM2678.33 729.923L2673.63 702.129C2670.21 704.267 2662.51 708.115 2652.25 708.115C2634.72 708.115 2627.88 699.563 2627.88 670.487V556.746H2672.78L2677.05 528.524H2627.88V471.226H2597.09L2593.24 528.524L2568.44 533.655V556.746H2593.24V675.19C2593.24 720.516 2611.2 738.902 2646.26 738.902C2664.65 738.902 2675.34 732.061 2678.33 729.923ZM2796.35 618.32H2785.66C2739.05 618.32 2700.14 634.141 2700.14 681.604C2700.14 714.957 2723.66 738.902 2754.87 738.902C2780.95 738.902 2793.35 721.371 2798.06 711.108H2798.91C2799.34 721.371 2799.77 727.785 2800.2 733.771H2833.12C2832.27 728.212 2830.56 708.543 2830.56 691.011V597.367C2830.56 545.628 2808.32 523.393 2766.42 523.393C2733.49 523.393 2713.82 539.214 2704.84 548.194L2719.38 571.284C2727.08 564.442 2740.76 552.897 2761.29 552.897C2783.52 552.897 2796.35 564.015 2796.35 598.65V618.32ZM2796.35 643.976V689.301C2792.07 695.715 2782.24 709.398 2762.14 709.398C2745.04 709.398 2734.78 698.708 2734.78 677.756C2734.78 655.093 2752.31 645.686 2785.23 644.403L2796.35 643.976ZM2916.93 427.611L2882.29 431.46V688.873C2882.29 725.219 2898.11 737.619 2921.2 737.619C2936.6 737.619 2945.58 733.771 2949 732.061L2946 706.405C2943.87 707.26 2939.59 708.97 2933.18 708.97C2921.2 708.97 2916.93 702.984 2916.93 685.88V427.611ZM3046.91 551.614C3068.72 551.614 3080.27 568.291 3080.27 596.512C3080.27 602.926 3079.84 608.485 3079.41 611.478H3005.01C3006.72 572.994 3022.54 551.614 3046.91 551.614ZM3116.18 714.529L3103.36 690.156C3098.65 694.86 3084.54 708.115 3060.17 708.115C3025.53 708.115 3006.72 685.453 3004.58 637.562H3109.34C3110.62 627.727 3111.91 615.327 3111.91 597.795C3111.91 548.621 3087.96 523.393 3049.05 523.393C3006.29 523.393 2970.8 555.89 2970.8 628.582C2970.8 705.977 3003.3 738.902 3055.04 738.902C3093.95 738.902 3110.62 720.516 3116.18 714.529ZM3261.56 545.201C3254.72 538.359 3241.04 523.393 3209.4 523.393C3176.04 523.393 3149.96 546.056 3149.96 576.415C3149.96 604.637 3165.36 621.313 3191.01 637.562L3203.84 645.686C3223.51 658.086 3233.77 664.928 3233.77 684.597C3233.77 697.853 3222.65 708.115 3202.13 708.115C3179.89 708.115 3167.07 694.86 3160.65 688.018L3143.98 715.384C3152.1 723.936 3168.78 738.902 3201.7 738.902C3243.6 738.902 3267.12 713.674 3267.12 681.177C3267.12 650.817 3250.02 634.141 3222.22 617.465L3209.4 609.768C3191.01 598.65 3182.46 590.098 3182.46 574.705C3182.46 562.732 3192.29 552.897 3210.68 552.897C3229.92 552.897 3241.89 564.87 3246.6 570.001L3261.56 545.201ZM3509.56 710.681H3510.42V733.771H3542.06V528.524H3507.43V685.453C3500.58 694.004 3486.9 708.115 3465.95 708.115C3442.86 708.115 3431.74 694.432 3431.74 660.652V528.524H3397.11V663.217C3397.11 718.805 3419.77 738.902 3456.11 738.902C3487.33 738.902 3505.72 717.95 3509.56 710.681ZM3671.62 552.897C3695.56 552.897 3707.11 567.008 3707.11 601.643V733.771H3741.74V599.078C3741.74 543.49 3718.65 523.393 3681.88 523.393C3649.81 523.393 3631.43 544.345 3627.58 551.614H3626.72V528.524H3595.08V733.771H3629.72V575.56C3636.56 567.008 3650.67 552.897 3671.62 552.897ZM3865.32 708.115C3841.37 708.115 3819.99 689.301 3819.99 632.858C3819.99 574.705 3845.22 554.18 3877.29 554.18C3889.69 554.18 3897.81 557.601 3903.8 561.449V688.018C3899.1 694.86 3887.12 708.115 3865.32 708.115ZM3905.94 711.964H3906.79V733.771H3938.43V427.611L3903.8 431.46V529.807C3897.39 527.241 3887.98 524.676 3874.72 524.676C3831.11 524.676 3784.07 551.187 3784.07 634.141C3784.07 708.97 3817 738.902 3855.91 738.902C3888.41 738.902 3902.09 718.378 3905.94 711.964Z" fill="black"></path>
<path d="M1583.73 883.422C1577.32 878.291 1558.51 861.187 1519.17 861.187C1472.99 861.187 1443.48 890.264 1443.48 928.32C1443.48 968.942 1462.3 988.611 1494.79 1015.98L1518.74 1036.07C1543.54 1057.03 1555.51 1070.71 1555.51 1096.37C1555.51 1116.46 1539.26 1133.14 1510.19 1133.14C1479.83 1133.14 1460.16 1114.32 1452.89 1107.48L1437.93 1139.98C1446.48 1147.68 1468.71 1166.49 1511.04 1166.49C1564.06 1166.49 1593.14 1136.13 1593.14 1091.23C1593.14 1052.75 1571.33 1029.66 1543.54 1006.57L1519.59 986.901C1492.66 965.093 1480.26 950.555 1480.26 927.465C1480.26 909.078 1493.51 893.257 1519.17 893.257C1546.53 893.257 1563.64 906.94 1568.34 911.644L1583.73 883.422ZM1724.41 1157.51L1719.71 1129.72C1716.28 1131.86 1708.59 1135.7 1698.33 1135.7C1680.79 1135.7 1673.95 1127.15 1673.95 1098.08V984.335H1718.85L1723.13 956.114H1673.95V898.816H1643.17L1639.32 956.114L1614.52 961.245V984.335H1639.32V1102.78C1639.32 1148.11 1657.28 1166.49 1692.34 1166.49C1710.73 1166.49 1721.42 1159.65 1724.41 1157.51ZM1842.42 1045.91H1831.73C1785.13 1045.91 1746.22 1061.73 1746.22 1109.19C1746.22 1142.55 1769.73 1166.49 1800.95 1166.49C1827.03 1166.49 1839.43 1148.96 1844.13 1138.7H1844.99C1845.42 1148.96 1845.84 1155.37 1846.27 1161.36H1879.2C1878.34 1155.8 1876.63 1136.13 1876.63 1118.6V1024.96C1876.63 973.218 1854.4 950.983 1812.49 950.983C1779.57 950.983 1759.9 966.804 1750.92 975.783L1765.46 998.874C1773.15 992.032 1786.84 980.487 1807.36 980.487C1829.6 980.487 1842.42 991.604 1842.42 1026.24V1045.91ZM1842.42 1071.57V1116.89C1838.15 1123.3 1828.31 1136.99 1808.22 1136.99C1791.11 1136.99 1780.85 1126.3 1780.85 1105.35C1780.85 1082.68 1798.38 1073.28 1831.31 1071.99L1842.42 1071.57ZM2013.03 1045.91H2002.34C1955.73 1045.91 1916.82 1061.73 1916.82 1109.19C1916.82 1142.55 1940.34 1166.49 1971.55 1166.49C1997.64 1166.49 2010.04 1148.96 2014.74 1138.7H2015.6C2016.02 1148.96 2016.45 1155.37 2016.88 1161.36H2049.8C2048.95 1155.8 2047.24 1136.13 2047.24 1118.6V1024.96C2047.24 973.218 2025 950.983 1983.1 950.983C1950.17 950.983 1930.51 966.804 1921.53 975.783L1936.06 998.874C1943.76 992.032 1957.44 980.487 1977.97 980.487C2000.2 980.487 2013.03 991.604 2013.03 1026.24V1045.91ZM2013.03 1071.57V1116.89C2008.75 1123.3 1998.92 1136.99 1978.82 1136.99C1961.72 1136.99 1951.46 1126.3 1951.46 1105.35C1951.46 1082.68 1968.99 1073.28 2001.91 1071.99L2013.03 1071.57ZM2192.62 1157.51L2187.91 1129.72C2184.49 1131.86 2176.8 1135.7 2166.53 1135.7C2149 1135.7 2142.16 1127.15 2142.16 1098.08V984.335H2187.06L2191.33 956.114H2142.16V898.816H2111.37L2107.53 956.114L2082.73 961.245V984.335H2107.53V1102.78C2107.53 1148.11 2125.49 1166.49 2160.55 1166.49C2178.93 1166.49 2189.62 1159.65 2192.62 1157.51ZM2329.87 972.79C2323.03 965.949 2309.35 950.983 2277.71 950.983C2244.35 950.983 2218.27 973.645 2218.27 1004C2218.27 1032.23 2233.66 1048.9 2259.32 1065.15L2272.15 1073.28C2291.82 1085.68 2302.08 1092.52 2302.08 1112.19C2302.08 1125.44 2290.96 1135.7 2270.44 1135.7C2248.2 1135.7 2235.38 1122.45 2228.96 1115.61L2212.29 1142.97C2220.41 1151.53 2237.09 1166.49 2270.01 1166.49C2311.91 1166.49 2335.43 1141.26 2335.43 1108.77C2335.43 1078.41 2318.33 1061.73 2290.53 1045.05L2277.71 1037.36C2259.32 1026.24 2250.77 1017.69 2250.77 1002.29C2250.77 990.322 2260.6 980.487 2278.99 980.487C2298.23 980.487 2310.2 992.46 2314.91 997.591L2329.87 972.79ZM2453.02 981.77C2474.4 981.77 2483.8 995.88 2483.8 1029.23V1161.36H2518.44V1023.67C2518.44 1015.98 2518.01 1008.71 2516.73 1002.29C2524.42 993.315 2537.25 981.77 2556.07 981.77C2579.16 981.77 2591.56 995.88 2591.56 1029.23V1161.36H2626.19V1023.67C2626.19 974.928 2604.81 950.983 2563.76 950.983C2537.25 950.983 2518.44 966.804 2509.46 978.349C2500.05 959.962 2482.95 950.983 2459.86 950.983C2431.64 950.983 2414.11 969.797 2408.55 979.204H2407.69V956.114H2376.05V1161.36H2410.69V1003.15C2416.67 995.88 2429.93 981.77 2453.02 981.77ZM2668.52 1058.74C2668.52 1135.7 2703.16 1166.49 2748.48 1166.49C2793.38 1166.49 2830.58 1135.28 2830.58 1058.74C2830.58 983.052 2795.94 950.983 2750.62 950.983C2706.58 950.983 2668.52 983.052 2668.52 1058.74ZM2794.66 1058.74C2794.66 1113.04 2777.98 1135.7 2749.76 1135.7C2721.54 1135.7 2704.44 1113.04 2704.44 1058.74C2704.44 1004.43 2721.12 980.487 2749.34 980.487C2777.56 980.487 2794.66 1004.43 2794.66 1058.74ZM2946.03 1135.7C2922.08 1135.7 2900.7 1116.89 2900.7 1060.45C2900.7 1002.29 2925.93 981.77 2958 981.77C2970.4 981.77 2978.52 985.19 2984.51 989.039V1115.61C2979.81 1122.45 2967.83 1135.7 2946.03 1135.7ZM2986.65 1139.55H2987.5V1161.36H3019.14V855.201L2984.51 859.049V957.397C2978.1 954.831 2968.69 952.265 2955.43 952.265C2911.82 952.265 2864.78 978.777 2864.78 1061.73C2864.78 1136.56 2897.71 1166.49 2936.62 1166.49C2969.12 1166.49 2982.8 1145.97 2986.65 1139.55ZM3138.87 979.204C3160.68 979.204 3172.22 995.88 3172.22 1024.1C3172.22 1030.52 3171.79 1036.07 3171.37 1039.07H3096.97C3098.68 1000.58 3114.5 979.204 3138.87 979.204ZM3208.14 1142.12L3195.31 1117.75C3190.61 1122.45 3176.5 1135.7 3152.12 1135.7C3117.49 1135.7 3098.68 1113.04 3096.54 1065.15H3201.3C3202.58 1055.32 3203.86 1042.92 3203.86 1025.38C3203.86 976.211 3179.92 950.983 3141.01 950.983C3098.25 950.983 3062.76 983.48 3062.76 1056.17C3062.76 1133.57 3095.25 1166.49 3146.99 1166.49C3185.9 1166.49 3202.58 1148.11 3208.14 1142.12ZM3344.54 955.686C3341.12 954.403 3335.56 952.265 3325.72 952.265C3299.64 952.265 3288.52 967.659 3282.54 983.908H3281.68V956.114H3250.04V1161.36H3284.68V1010.85C3289.81 997.163 3301.35 983.052 3323.16 983.052C3332.57 983.052 3338.55 985.618 3340.26 986.473L3344.54 955.686ZM3451.01 980.487C3474.95 980.487 3486.5 994.598 3486.5 1029.23V1161.36H3521.13V1026.67C3521.13 971.08 3498.04 950.983 3461.27 950.983C3429.2 950.983 3410.81 971.935 3406.97 979.204H3406.11V956.114H3374.47V1161.36H3409.1V1003.15C3415.95 994.598 3430.06 980.487 3451.01 980.487ZM3590.4 906.513C3604.08 906.513 3613.49 896.25 3613.49 881.712C3613.49 867.601 3604.08 857.339 3590.4 857.339C3576.29 857.339 3566.88 867.601 3566.88 881.712C3566.88 896.25 3576.29 906.513 3590.4 906.513ZM3607.5 956.114H3572.87V1161.36H3607.5V956.114ZM3764 972.79C3757.16 965.949 3743.48 950.983 3711.84 950.983C3678.48 950.983 3652.4 973.645 3652.4 1004C3652.4 1032.23 3667.79 1048.9 3693.45 1065.15L3706.28 1073.28C3725.95 1085.68 3736.21 1092.52 3736.21 1112.19C3736.21 1125.44 3725.09 1135.7 3704.57 1135.7C3682.33 1135.7 3669.5 1122.45 3663.09 1115.61L3646.41 1142.97C3654.54 1151.53 3671.22 1166.49 3704.14 1166.49C3746.04 1166.49 3769.56 1141.26 3769.56 1108.77C3769.56 1078.41 3752.46 1061.73 3724.66 1045.05L3711.84 1037.36C3693.45 1026.24 3684.9 1017.69 3684.9 1002.29C3684.9 990.322 3694.73 980.487 3713.12 980.487C3732.36 980.487 3744.33 992.46 3749.04 997.591L3764 972.79ZM3827.71 906.513C3841.39 906.513 3850.8 896.25 3850.8 881.712C3850.8 867.601 3841.39 857.339 3827.71 857.339C3813.6 857.339 3804.19 867.601 3804.19 881.712C3804.19 896.25 3813.6 906.513 3827.71 906.513ZM3844.82 956.114H3810.18V1161.36H3844.82V956.114ZM3964.54 979.204C3986.35 979.204 3997.89 995.88 3997.89 1024.1C3997.89 1030.52 3997.46 1036.07 3997.04 1039.07H3922.64C3924.35 1000.58 3940.17 979.204 3964.54 979.204ZM4033.81 1142.12L4020.98 1117.75C4016.28 1122.45 4002.17 1135.7 3977.8 1135.7C3943.16 1135.7 3924.35 1113.04 3922.21 1065.15H4026.97C4028.25 1055.32 4029.53 1042.92 4029.53 1025.38C4029.53 976.211 4005.59 950.983 3966.68 950.983C3923.92 950.983 3888.43 983.48 3888.43 1056.17C3888.43 1133.57 3920.93 1166.49 3972.66 1166.49C4011.57 1166.49 4028.25 1148.11 4033.81 1142.12ZM4170.21 955.686C4166.79 954.403 4161.23 952.265 4151.4 952.265C4125.31 952.265 4114.2 967.659 4108.21 983.908H4107.35V956.114H4075.71V1161.36H4110.35V1010.85C4115.48 997.163 4127.02 983.052 4148.83 983.052C4158.24 983.052 4164.22 985.618 4165.93 986.473L4170.21 955.686ZM4311.31 1138.27H4312.17V1161.36H4343.81V956.114H4309.18V1113.04C4302.33 1121.59 4288.65 1135.7 4267.7 1135.7C4244.61 1135.7 4233.49 1122.02 4233.49 1088.24V956.114H4198.86V1090.81C4198.86 1146.39 4221.52 1166.49 4257.86 1166.49C4289.08 1166.49 4307.47 1145.54 4311.31 1138.27ZM4473.37 980.487C4497.31 980.487 4508.86 994.598 4508.86 1029.23V1161.36H4543.49V1026.67C4543.49 971.08 4520.4 950.983 4483.63 950.983C4451.56 950.983 4433.18 971.935 4429.33 979.204H4428.47V956.114H4396.83V1161.36H4431.47V1003.15C4438.31 994.598 4452.42 980.487 4473.37 980.487ZM4692.72 1019.83C4692.72 1049.33 4676.47 1060.88 4656.8 1060.88C4637.99 1060.88 4621.31 1049.33 4621.31 1019.83C4621.31 990.322 4637.99 978.777 4657.66 978.777C4676.47 978.777 4692.72 990.322 4692.72 1019.83ZM4743.18 1177.18C4743.18 1138.27 4714.1 1122.88 4675.19 1122.88H4649.11C4634.14 1122.88 4628.16 1116.89 4628.16 1108.34C4628.16 1097.65 4637.99 1092.09 4644.83 1089.1C4648.25 1089.52 4651.67 1089.52 4655.52 1089.52C4695.71 1089.52 4726.5 1063.44 4726.5 1019.83C4726.5 1006.14 4723.08 993.315 4716.67 983.052H4742.32L4747.03 956.114H4684.6C4676.05 952.693 4667.07 950.983 4657.23 950.983C4618.75 950.983 4587.53 973.645 4587.53 1019.83C4587.53 1052.32 4601.65 1072.85 4622.6 1082.68V1083.54C4617.47 1086.1 4597.8 1094.66 4597.8 1116.89C4597.8 1129.72 4602.5 1139.13 4611.05 1145.54V1146.39C4601.65 1151.53 4576.84 1166.06 4576.84 1196.42C4576.84 1231.91 4600.36 1252.01 4643.98 1252.01C4704.69 1252.01 4743.18 1221.22 4743.18 1177.18ZM4646.54 1222.51C4622.17 1222.51 4610.2 1211.39 4610.2 1189.58C4610.2 1169.06 4621.31 1159.22 4631.15 1153.66C4635.85 1154.52 4641.41 1154.95 4646.97 1154.95H4673.05C4694 1154.95 4707.69 1162.64 4707.69 1182.31C4707.69 1203.27 4688.45 1222.51 4646.54 1222.51Z" fill="black"></path>
</svg>